<svg xmlns="http://www.w3.org/2000/svg" viewBox="0 0 247.96 478.98"><defs><style>.cls-1{fill:#ccd443;}</style></defs><g id="Capa_2" data-name="Capa 2"><g id="Capa_1-2" data-name="Capa 1"><path class="cls-1" d="M60,415q-28.83-12.94-45.2-35.95A89.14,89.14,0,0,1,.45,347.23a17.46,17.46,0,0,1,17.09-21.3H34.75a17.36,17.36,0,0,1,16.78,12.53,67.16,67.16,0,0,0,19.06,31.08q18.76,17.73,54.72,17.71,34.37,0,54.19-17.18t19.82-44.14q0-21.15-11.63-34.37a74.46,74.46,0,0,0-29.07-20.09q-17.46-6.86-47.06-14.8-36.48-9.51-58.41-19T15.61,207.77Q0,187.41,0,153.05q0-30.14,15.33-53.39T58.43,63.71Q86.2,51,122.14,51q51.79,0,84.85,25.9Q230.77,95.57,239.62,123a17.46,17.46,0,0,1-16.72,22.68H205a17.61,17.61,0,0,1-16.44-11.5q-5.31-14.18-19.37-25.77-19.56-16.12-51.81-16.13-30.13,0-49.17,15.6t-19,43.62q0,20.09,11.37,32.77a73.09,73.09,0,0,0,28,19.3q16.65,6.61,46.78,15.07,36.48,10,58.69,19.82a98,98,0,0,1,38.06,30.14Q248,288.92,248,323.81a97.1,97.1,0,0,1-14.27,50.76q-14.28,23.79-42.3,38.59T125.31,428Q88.83,428,60,415Z"/><rect class="cls-1" x="105.43" width="35" height="478.98" rx="17.5"/></g></g></svg>