<svg xmlns="http://www.w3.org/2000/svg" viewBox="0 0 250.06 478.98"><defs><style>.cls-1{fill:#ccc;}</style></defs><g id="Capa_2" data-name="Capa 2"><g id="Capa_1-2" data-name="Capa 1"><path class="cls-1" d="M62.12,415q-28.82-12.94-45.2-35.95T0,325.93H51.28a67.49,67.49,0,0,0,21.41,43.61q18.77,17.73,54.72,17.71,34.36,0,54.19-17.18t19.82-44.14q0-21.15-11.63-34.37a74.46,74.46,0,0,0-29.07-20.09q-17.44-6.86-47-14.8-36.48-9.51-58.42-19T17.71,207.77q-15.6-20.36-15.6-54.72,0-30.14,15.34-53.39T60.53,63.71Q88.3,51,124.24,51q51.81,0,84.85,25.9t37.27,68.73H193.49q-2.64-21.14-22.2-37.27T119.48,92.25q-30.14,0-49.17,15.6t-19,43.62q0,20.09,11.37,32.77a73.17,73.17,0,0,0,28,19.3q16.65,6.61,46.79,15.07,36.47,10,58.68,19.82a98,98,0,0,1,38.06,30.14q15.87,20.35,15.86,55.24a97.1,97.1,0,0,1-14.27,50.76q-14.28,23.79-42.3,38.59T127.41,428Q90.93,428,62.12,415Z"/><rect class="cls-1" x="107.53" width="35" height="478.98"/></g></g></svg>